<mxfile host="app.diagrams.net" modified="2023-05-09T06:44:19.635Z" agent="Mozilla/5.0 (Macintosh; Intel Mac OS X 10_15_7) AppleWebKit/537.36 (KHTML, like Gecko) Chrome/112.0.0.0 Safari/537.36" etag="cDlrCYrAPdV-3qQfN4er" version="21.2.9" type="github">
  <diagram name="Page-1" id="G4DodcpcyrsFpDxfH78B">
    <mxGraphModel dx="1194" dy="648" grid="1" gridSize="10" guides="1" tooltips="1" connect="1" arrows="1" fold="1" page="1" pageScale="1" pageWidth="850" pageHeight="1100" math="0" shadow="0">
      <root>
        <mxCell id="0" />
        <mxCell id="1" parent="0" />
        <mxCell id="oTusDJXpcAcT87zP5PXx-3" style="edgeStyle=orthogonalEdgeStyle;rounded=0;orthogonalLoop=1;jettySize=auto;html=1;entryX=0.5;entryY=0;entryDx=0;entryDy=0;" edge="1" parent="1" source="oTusDJXpcAcT87zP5PXx-1" target="oTusDJXpcAcT87zP5PXx-2">
          <mxGeometry relative="1" as="geometry" />
        </mxCell>
        <mxCell id="oTusDJXpcAcT87zP5PXx-7" style="edgeStyle=orthogonalEdgeStyle;rounded=0;orthogonalLoop=1;jettySize=auto;html=1;entryX=0.5;entryY=0;entryDx=0;entryDy=0;" edge="1" parent="1" source="oTusDJXpcAcT87zP5PXx-1" target="oTusDJXpcAcT87zP5PXx-4">
          <mxGeometry relative="1" as="geometry" />
        </mxCell>
        <mxCell id="oTusDJXpcAcT87zP5PXx-8" style="edgeStyle=orthogonalEdgeStyle;rounded=0;orthogonalLoop=1;jettySize=auto;html=1;entryX=0.5;entryY=0;entryDx=0;entryDy=0;" edge="1" parent="1" source="oTusDJXpcAcT87zP5PXx-1" target="oTusDJXpcAcT87zP5PXx-5">
          <mxGeometry relative="1" as="geometry" />
        </mxCell>
        <mxCell id="oTusDJXpcAcT87zP5PXx-9" style="edgeStyle=orthogonalEdgeStyle;rounded=0;orthogonalLoop=1;jettySize=auto;html=1;entryX=0.5;entryY=0;entryDx=0;entryDy=0;" edge="1" parent="1" source="oTusDJXpcAcT87zP5PXx-1" target="oTusDJXpcAcT87zP5PXx-6">
          <mxGeometry relative="1" as="geometry" />
        </mxCell>
        <mxCell id="oTusDJXpcAcT87zP5PXx-1" value="Course" style="rounded=0;whiteSpace=wrap;html=1;" vertex="1" parent="1">
          <mxGeometry x="390" y="150" width="120" height="60" as="geometry" />
        </mxCell>
        <mxCell id="oTusDJXpcAcT87zP5PXx-2" value="Create Course" style="rounded=0;whiteSpace=wrap;html=1;" vertex="1" parent="1">
          <mxGeometry x="120" y="280" width="120" height="60" as="geometry" />
        </mxCell>
        <mxCell id="oTusDJXpcAcT87zP5PXx-4" value="Update Course" style="rounded=0;whiteSpace=wrap;html=1;" vertex="1" parent="1">
          <mxGeometry x="300" y="280" width="120" height="60" as="geometry" />
        </mxCell>
        <mxCell id="oTusDJXpcAcT87zP5PXx-5" value="Delete Course" style="rounded=0;whiteSpace=wrap;html=1;" vertex="1" parent="1">
          <mxGeometry x="480" y="280" width="120" height="60" as="geometry" />
        </mxCell>
        <mxCell id="oTusDJXpcAcT87zP5PXx-6" value="Get Course Details" style="rounded=0;whiteSpace=wrap;html=1;" vertex="1" parent="1">
          <mxGeometry x="660" y="280" width="120" height="60" as="geometry" />
        </mxCell>
      </root>
    </mxGraphModel>
  </diagram>
</mxfile>
